# This file uses centimeters as units for non-parametric coordinates.

mtllib key.mtl
g default
v -0.250000 -1.854514 0.250000
v 0.250000 -1.854514 0.250000
v -0.250000 2.500000 0.250000
v 0.250000 2.500000 0.250000
v -0.250000 2.500000 -0.250000
v 0.250000 2.500000 -0.250000
v -0.250000 -1.854514 -0.250000
v 0.250000 -1.854514 -0.250000
v -0.250000 0.500000 0.250000
v 0.250000 0.500000 0.250000
v 0.250000 0.500000 -0.250000
v -0.250000 0.500000 -0.250000
v -0.250000 2.300000 -0.250000
v 0.250000 2.300000 -0.250000
v 0.250000 2.300000 0.250000
v -0.250000 2.300000 0.250000
v -0.250000 1.940000 0.250000
v 0.250000 1.940000 0.250000
v 0.250000 1.940000 -0.250000
v -0.250000 1.940000 -0.250000
v -0.250000 1.652000 0.250000
v 0.250000 1.652000 0.250000
v 0.250000 1.652000 -0.250000
v -0.250000 1.652000 -0.250000
v -0.250000 1.191200 0.250000
v 0.250000 1.191200 0.250000
v 0.250000 1.191200 -0.250000
v -0.250000 1.191200 -0.250000
v -0.250000 0.914720 0.250000
v 0.250000 0.914720 0.250000
v 0.250000 0.914720 -0.250000
v -0.250000 0.914720 -0.250000
v -0.250000 2.300000 -1.250000
v 0.250000 2.300000 -1.250000
v 0.250000 1.940000 -1.250000
v -0.250000 1.940000 -1.250000
v 0.250000 0.914720 -1.250000
v -0.250000 0.914720 -1.250000
v 0.250000 0.500000 -1.250000
v -0.250000 0.500000 -1.250000
v 0.250000 1.652000 -0.848141
v -0.250000 1.652000 -0.848141
v 0.250000 1.191200 -0.848141
v -0.250000 1.191200 -0.848141
v -0.250000 -1.284398 0.250000
v 0.250000 -1.284398 0.250000
v 0.250000 -1.284398 -0.250000
v -0.250000 -1.284398 -0.250000
v -0.250000 -1.854514 1.550000
v 0.250000 -1.854514 1.550000
v 0.250000 -1.284398 1.550000
v -0.250000 -1.284398 1.550000
v 0.250000 -1.284398 -1.550000
v -0.250000 -1.284398 -1.550000
v 0.250000 -1.854514 -1.550000
v -0.250000 -1.854514 -1.550000
v 0.250000 -1.284398 -1.030000
v 0.250000 -1.854514 -1.030000
v -0.250000 -1.854514 -1.030000
v -0.250000 -1.284398 -1.030000
v -0.250000 -1.854514 1.030000
v 0.250000 -1.854514 1.030000
v 0.250000 -1.284398 1.030000
v -0.250000 -1.284398 1.030000
v -0.250000 -3.354514 1.030000
v 0.250000 -3.354514 1.030000
v 0.250000 -3.354514 1.550000
v -0.250000 -3.354514 1.550000
v 0.250000 -3.654514 -1.030000
v -0.250000 -3.654514 -1.030000
v -0.250000 -3.654514 -1.550000
v 0.250000 -3.654514 -1.550000
v -0.250000 -3.654514 1.030000
v 0.250000 -3.654514 1.030000
v 0.250000 -3.654514 1.550000
v -0.250000 -3.654514 1.550000
v 0.250000 -3.114514 -1.030000
v -0.250000 -3.114514 -1.030000
v -0.250000 -3.114514 -1.550000
v 0.250000 -3.114514 -1.550000
v 0.250000 -3.114514 1.147097
v -0.250000 -3.114514 1.147097
v -0.250000 -3.654514 1.147097
v 0.250000 -3.654514 1.147097
vt 0.375000 0.000000
vt 0.625000 0.000000
vt 0.375000 0.250000
vt 0.625000 0.250000
vt 0.375000 0.500000
vt 0.625000 0.500000
vt 0.375000 0.750000
vt 0.625000 0.750000
vt 0.375000 1.000000
vt 0.625000 1.000000
vt 0.875000 0.000000
vt 0.875000 0.250000
vt 0.125000 0.000000
vt 0.125000 0.250000
vt 0.375000 0.150000
vt 0.625000 0.150000
vt 0.625000 0.600000
vt 0.875000 0.150000
vt 0.125000 0.150000
vt 0.375000 0.600000
vt 0.125000 0.240000
vt 0.375000 0.510000
vt 0.625000 0.510000
vt 0.875000 0.240000
vt 0.625000 0.240000
vt 0.375000 0.240000
vt 0.375000 0.222000
vt 0.625000 0.222000
vt 0.625000 0.528000
vt 0.875000 0.222000
vt 0.125000 0.222000
vt 0.375000 0.528000
vt 0.375000 0.207600
vt 0.625000 0.207600
vt 0.625000 0.542400
vt 0.875000 0.207600
vt 0.125000 0.207600
vt 0.375000 0.542400
vt 0.375000 0.184560
vt 0.625000 0.184560
vt 0.625000 0.565440
vt 0.875000 0.184560
vt 0.125000 0.184560
vt 0.375000 0.565440
vt 0.375000 0.170736
vt 0.625000 0.170736
vt 0.625000 0.579264
vt 0.875000 0.170736
vt 0.125000 0.170736
vt 0.375000 0.579264
vt 0.375000 0.510000
vt 0.625000 0.510000
vt 0.625000 0.528000
vt 0.375000 0.528000
vt 0.375000 0.579264
vt 0.625000 0.579264
vt 0.625000 0.600000
vt 0.375000 0.600000
vt 0.375000 0.542400
vt 0.625000 0.542400
vt 0.625000 0.565440
vt 0.375000 0.565440
vt 0.375000 0.015000
vt 0.625000 0.015000
vt 0.625000 0.735000
vt 0.875000 0.015000
vt 0.125000 0.015000
vt 0.375000 0.735000
vt 0.375000 0.000000
vt 0.625000 0.000000
vt 0.625000 0.015000
vt 0.375000 0.015000
vt 0.375000 0.735000
vt 0.625000 0.735000
vt 0.625000 0.750000
vt 0.375000 0.750000
vt 0.625000 0.735000
vt 0.625000 0.750000
vt 0.375000 0.750000
vt 0.375000 0.735000
vt 0.375000 0.000000
vt 0.625000 0.000000
vt 0.625000 0.015000
vt 0.375000 0.015000
vt 0.375000 0.000000
vt 0.625000 0.000000
vt 0.625000 0.000000
vt 0.375000 0.000000
vt 0.625000 0.750000
vt 0.375000 0.750000
vt 0.375000 0.750000
vt 0.625000 0.750000
vt 0.375000 0.000000
vt 0.625000 0.000000
vt 0.625000 0.000000
vt 0.375000 0.000000
vt 0.625000 0.750000
vt 0.375000 0.750000
vt 0.375000 0.750000
vt 0.625000 0.750000
vt 0.625000 0.750000
vt 0.375000 0.750000
vt 0.375000 0.750000
vt 0.625000 0.750000
vn 0.000000 0.000000 1.000000
vn 0.000000 0.000000 1.000000
vn 0.000000 0.000000 1.000000
vn 0.000000 0.000000 1.000000
vn 0.000000 1.000000 0.000000
vn 0.000000 1.000000 0.000000
vn 0.000000 1.000000 0.000000
vn 0.000000 1.000000 0.000000
vn 0.000000 0.000000 -1.000000
vn 0.000000 0.000000 -1.000000
vn 0.000000 0.000000 -1.000000
vn 0.000000 0.000000 -1.000000
vn 0.000000 -1.000000 0.000000
vn 0.000000 -1.000000 0.000000
vn 0.000000 -1.000000 0.000000
vn 0.000000 -1.000000 0.000000
vn 1.000000 0.000000 0.000000
vn 1.000000 0.000000 0.000000
vn 1.000000 0.000000 0.000000
vn 1.000000 0.000000 0.000000
vn -1.000000 0.000000 0.000000
vn -1.000000 0.000000 0.000000
vn -1.000000 0.000000 0.000000
vn -1.000000 0.000000 0.000000
vn 0.000000 0.000000 1.000000
vn 0.000000 0.000000 1.000000
vn 0.000000 0.000000 1.000000
vn 0.000000 0.000000 1.000000
vn 1.000000 0.000000 0.000000
vn 1.000000 0.000000 0.000000
vn 1.000000 0.000000 0.000000
vn 1.000000 0.000000 0.000000
vn 0.000000 0.000000 -1.000000
vn 0.000000 0.000000 -1.000000
vn 0.000000 0.000000 -1.000000
vn 0.000000 0.000000 -1.000000
vn -1.000000 0.000000 0.000000
vn -1.000000 0.000000 0.000000
vn -1.000000 0.000000 0.000000
vn -1.000000 0.000000 0.000000
vn 0.000000 0.000000 -1.000000
vn 0.000000 0.000000 -1.000000
vn 0.000000 0.000000 -1.000000
vn 0.000000 0.000000 -1.000000
vn 1.000000 0.000000 0.000000
vn 1.000000 0.000000 0.000000
vn 0.000000 0.000000 1.000000
vn 0.000000 0.000000 1.000000
vn -1.000000 0.000000 0.000000
vn -1.000000 0.000000 0.000000
vn 0.000000 0.000000 1.000000
vn 0.000000 0.000000 1.000000
vn 1.000000 0.000000 0.000000
vn 1.000000 0.000000 0.000000
vn 0.000000 0.000000 -1.000000
vn 0.000000 0.000000 -1.000000
vn 0.000000 0.000000 -1.000000
vn 0.000000 0.000000 -1.000000
vn -1.000000 0.000000 0.000000
vn -1.000000 0.000000 0.000000
vn 0.000000 0.000000 1.000000
vn 0.000000 0.000000 1.000000
vn 1.000000 0.000000 0.000000
vn 1.000000 0.000000 0.000000
vn 0.000000 0.000000 -1.000000
vn 0.000000 0.000000 -1.000000
vn 0.000000 0.000000 -1.000000
vn 0.000000 0.000000 -1.000000
vn -1.000000 0.000000 0.000000
vn -1.000000 0.000000 0.000000
vn 0.000000 0.000000 1.000000
vn 0.000000 0.000000 1.000000
vn 1.000000 0.000000 0.000000
vn 1.000000 0.000000 0.000000
vn 0.000000 0.000000 -1.000000
vn 0.000000 0.000000 -1.000000
vn 0.000000 0.000000 -1.000000
vn 0.000000 0.000000 -1.000000
vn -1.000000 0.000000 0.000000
vn -1.000000 0.000000 0.000000
vn 0.000000 0.000000 -1.000000
vn 0.000000 0.000000 -1.000000
vn 0.000000 0.000000 -1.000000
vn 0.000000 0.000000 -1.000000
vn 0.000000 1.000000 0.000000
vn 0.000000 1.000000 0.000000
vn 0.000000 1.000000 0.000000
vn 0.000000 1.000000 0.000000
vn 1.000000 0.000000 0.000000
vn 1.000000 0.000000 0.000000
vn 0.000000 -1.000000 0.000000
vn 0.000000 -1.000000 0.000000
vn 0.000000 -1.000000 0.000000
vn 0.000000 -1.000000 0.000000
vn -1.000000 0.000000 0.000000
vn -1.000000 0.000000 0.000000
vn 0.000000 1.000000 0.000000
vn 0.000000 1.000000 0.000000
vn 0.000000 1.000000 0.000000
vn 0.000000 1.000000 0.000000
vn 1.000000 0.000000 0.000000
vn 1.000000 0.000000 0.000000
vn 0.000000 -1.000000 -0.000000
vn 0.000000 -1.000000 -0.000000
vn 0.000000 -1.000000 -0.000000
vn 0.000000 -1.000000 -0.000000
vn -1.000000 0.000000 0.000000
vn -1.000000 0.000000 0.000000
vn 0.000000 1.000000 0.000000
vn 0.000000 1.000000 0.000000
vn 0.000000 1.000000 0.000000
vn 0.000000 1.000000 0.000000
vn 1.000000 0.000000 0.000000
vn 1.000000 0.000000 0.000000
vn 0.000000 -1.000000 0.000000
vn 0.000000 -1.000000 0.000000
vn 0.000000 -1.000000 0.000000
vn 0.000000 -1.000000 0.000000
vn -1.000000 0.000000 0.000000
vn -1.000000 0.000000 0.000000
vn 0.000000 0.000000 1.000000
vn 0.000000 0.000000 1.000000
vn 0.000000 0.000000 1.000000
vn 0.000000 0.000000 1.000000
vn 1.000000 0.000000 0.000000
vn 1.000000 0.000000 0.000000
vn 0.000000 0.000000 -1.000000
vn 0.000000 0.000000 -1.000000
vn 0.000000 0.000000 -1.000000
vn 0.000000 0.000000 -1.000000
vn -1.000000 0.000000 0.000000
vn -1.000000 0.000000 0.000000
vn 0.000000 -1.000000 0.000000
vn 0.000000 -1.000000 0.000000
vn 0.000000 -1.000000 0.000000
vn 0.000000 -1.000000 0.000000
vn 1.000000 0.000000 0.000000
vn 1.000000 0.000000 0.000000
vn 1.000000 0.000000 0.000000
vn 1.000000 0.000000 0.000000
vn 0.000000 1.000000 0.000000
vn 0.000000 1.000000 0.000000
vn 0.000000 1.000000 0.000000
vn 0.000000 1.000000 0.000000
vn -1.000000 0.000000 0.000000
vn -1.000000 0.000000 0.000000
vn -1.000000 0.000000 0.000000
vn -1.000000 0.000000 0.000000
vn 0.000000 1.000000 0.000000
vn 0.000000 1.000000 0.000000
vn 0.000000 1.000000 0.000000
vn 0.000000 1.000000 0.000000
vn 1.000000 0.000000 0.000000
vn 1.000000 0.000000 0.000000
vn 1.000000 0.000000 0.000000
vn 1.000000 0.000000 0.000000
vn 0.000000 -1.000000 0.000000
vn 0.000000 -1.000000 0.000000
vn 0.000000 -1.000000 0.000000
vn 0.000000 -1.000000 0.000000
vn -1.000000 0.000000 0.000000
vn -1.000000 0.000000 0.000000
vn -1.000000 0.000000 0.000000
vn -1.000000 0.000000 0.000000
vn 0.000000 -1.000000 0.000000
vn 0.000000 -1.000000 0.000000
vn 0.000000 1.000000 0.000000
vn 0.000000 1.000000 0.000000
vn 0.000000 -1.000000 0.000000
vn 0.000000 -1.000000 0.000000
vn 0.000000 1.000000 0.000000
vn 0.000000 1.000000 0.000000
vn 0.000000 0.000000 -1.000000
vn 0.000000 0.000000 -1.000000
vn 0.000000 0.000000 -1.000000
vn 0.000000 0.000000 -1.000000
vn 1.000000 0.000000 0.000000
vn 1.000000 0.000000 0.000000
vn 0.000000 0.000000 1.000000
vn 0.000000 0.000000 1.000000
vn -1.000000 0.000000 0.000000
vn -1.000000 0.000000 0.000000
vn 0.000000 0.000000 1.000000
vn 0.000000 0.000000 1.000000
vn 0.000000 0.000000 1.000000
vn 0.000000 0.000000 1.000000
vn -1.000000 0.000000 0.000000
vn -1.000000 0.000000 0.000000
vn -1.000000 0.000000 0.000000
vn -1.000000 0.000000 0.000000
vn 0.000000 0.000000 -1.000000
vn 0.000000 0.000000 -1.000000
vn 0.000000 0.000000 -1.000000
vn 0.000000 0.000000 -1.000000
vn 1.000000 0.000000 0.000000
vn 1.000000 0.000000 0.000000
vn 1.000000 0.000000 0.000000
vn 1.000000 0.000000 0.000000
vn 0.000000 0.000000 -1.000000
vn 0.000000 0.000000 -1.000000
vn 1.000000 0.000000 0.000000
vn 1.000000 0.000000 0.000000
vn 0.000000 0.000000 1.000000
vn 0.000000 0.000000 1.000000
vn -1.000000 0.000000 0.000000
vn -1.000000 0.000000 0.000000
vn 0.000000 0.000000 1.000000
vn 0.000000 0.000000 1.000000
vn 0.000000 0.000000 1.000000
vn 0.000000 0.000000 1.000000
vn 0.000000 1.000000 0.000000
vn 0.000000 1.000000 0.000000
vn 0.000000 1.000000 0.000000
vn 0.000000 1.000000 0.000000
vn -1.000000 0.000000 0.000000
vn -1.000000 0.000000 0.000000
vn 0.000000 -1.000000 0.000000
vn 0.000000 -1.000000 0.000000
vn 1.000000 0.000000 0.000000
vn 1.000000 0.000000 0.000000
s 1
g pCube1
usemtl initialShadingGroup
f 17/27/1 18/28/2 15/25/3 16/26/4
s off
f 3/3/5 4/4/6 6/6/7 5/5/8
f 33/51/9 34/52/10 35/53/11 36/54/12
s 2
f 7/7/13 8/8/14 2/10/15 1/9/16
s 3
f 18/28/17 19/30/18 14/24/19 15/25/20
s 4
f 20/31/21 17/27/22 16/26/23 13/21/24
s 1
f 45/63/25 46/64/26 10/16/27 9/15/28
s 3
f 46/64/29 47/66/30 11/18/31 10/16/32
s off
f 12/20/33 11/17/34 47/65/35 48/68/36
s 4
f 48/67/37 45/63/38 9/15/39 12/19/40
s off
f 5/5/41 6/6/42 14/23/43 13/22/44
s 3
f 15/25/20 14/24/19 6/12/45 4/4/46
s 1
f 16/26/4 15/25/3 4/4/47 3/3/48
s 4
f 13/21/24 16/26/23 3/3/49 5/14/50
s 1
f 21/33/51 22/34/52 18/28/2 17/27/1
s 3
f 22/34/53 23/36/54 19/30/18 18/28/17
s off
f 20/32/55 19/29/56 23/35/57 24/38/58
s 4
f 24/37/59 21/33/60 17/27/22 20/31/21
s 1
f 25/39/61 26/40/62 22/34/52 21/33/51
s 3
f 26/40/63 27/42/64 23/36/54 22/34/53
s off
f 42/59/65 41/60/66 43/61/67 44/62/68
s 4
f 28/43/69 25/39/70 21/33/60 24/37/59
s 1
f 29/45/71 30/46/72 26/40/62 25/39/61
s 3
f 30/46/73 31/48/74 27/42/64 26/40/63
s off
f 28/44/75 27/41/76 31/47/77 32/50/78
s 4
f 32/49/79 29/45/80 25/39/70 28/43/69
s 1
f 9/15/28 10/16/27 30/46/72 29/45/71
s 3
f 10/16/32 11/18/31 31/48/74 30/46/73
s off
f 38/55/81 37/56/82 39/57/83 40/58/84
s 4
f 12/19/40 9/15/39 29/45/80 32/49/79
s off
f 13/22/85 14/23/86 34/52/87 33/51/88
s 3
f 14/23/19 19/29/18 35/53/89 34/52/90
s off
f 19/29/91 20/32/92 36/54/93 35/53/94
s 4
f 20/32/21 13/22/24 33/51/95 36/54/96
s off
f 32/50/97 31/47/98 37/56/99 38/55/100
s 3
f 31/47/74 11/17/31 39/57/101 37/56/102
s off
f 11/17/103 12/20/104 40/58/105 39/57/106
s 4
f 12/20/40 32/50/79 38/55/107 40/58/108
s off
f 24/38/109 23/35/110 41/60/111 42/59/112
s 3
f 23/35/54 27/41/64 43/61/113 41/60/114
s off
f 27/41/115 28/44/116 44/62/117 43/61/118
s 4
f 28/44/69 24/38/59 42/59/119 44/62/120
s 8
f 49/69/121 50/70/122 51/71/123 52/72/124
s 3
f 2/2/125 8/11/126 47/66/30 46/64/29
s 9
f 54/73/127 53/74/128 55/75/129 56/76/130
s 4
f 7/13/131 1/1/132 45/63/38 48/67/37
s off
f 73/93/133 74/94/134 75/95/135 76/96/136
s 3
f 62/82/137 63/83/138 51/71/139 50/70/140
s 10
f 63/83/141 64/84/142 52/72/143 51/71/144
s 4
f 64/84/145 61/81/146 49/69/147 52/72/148
s 11
f 60/80/149 57/77/150 53/74/151 54/73/152
s 3
f 57/77/153 58/78/154 55/75/155 53/74/156
s 12
f 69/89/157 70/90/158 71/91/159 72/92/160
s 4
f 59/79/161 60/80/162 54/73/163 56/76/164
s 3
f 47/65/30 8/8/126 58/78/154 57/77/153
s 2
f 8/8/14 7/7/13 59/79/165 58/78/166
s 4
f 7/7/131 48/68/37 60/80/162 59/79/161
s 11
f 48/68/167 47/65/168 57/77/150 60/80/149
s 2
f 1/1/16 2/2/15 62/82/169 61/81/170
s 3
f 2/2/125 46/64/29 63/83/138 62/82/137
s 10
f 46/64/171 45/63/172 64/84/142 63/83/141
s 4
f 45/63/38 1/1/132 61/81/146 64/84/145
s 13
f 61/81/173 62/82/174 66/86/175 65/85/176
s 3
f 62/82/137 50/70/140 67/87/177 66/86/178
s 8
f 50/70/122 49/69/121 68/88/179 67/87/180
s 4
f 49/69/147 61/81/146 65/85/181 68/88/182
s off
f 81/101/183 82/102/184 83/103/185 84/104/186
s 4
f 78/98/187 79/99/188 71/91/189 70/90/190
s 9
f 79/99/191 80/100/192 72/92/193 71/91/194
s 3
f 80/100/195 77/97/196 69/89/197 72/92/198
s 13
f 65/85/176 66/86/175 74/94/199 73/93/200
s 3
f 66/86/178 67/87/177 75/95/201 74/94/202
s 8
f 67/87/180 68/88/179 76/96/203 75/95/204
s 4
f 68/88/182 65/85/181 73/93/205 76/96/206
s off
f 58/78/207 59/79/208 78/98/209 77/97/210
s 4
f 59/79/161 56/76/164 79/99/188 78/98/187
s 9
f 56/76/130 55/75/129 80/100/192 79/99/191
s 3
f 55/75/155 58/78/154 77/97/196 80/100/195
s off
f 77/97/211 78/98/212 82/102/213 81/101/214
s 4
f 78/98/187 70/90/190 83/103/215 82/102/216
s 12
f 70/90/158 69/89/157 84/104/217 83/103/218
s 3
f 69/89/197 77/97/196 81/101/219 84/104/220
