# This file uses centimeters as units for non-parametric coordinates.

mtllib paper.mtl
g default
v -0.497791 -0.250000 -0.002668
v 0.492021 -0.250000 -0.012418
v -0.497791 0.250000 -0.002668
v 0.492021 0.250000 -0.012418
v -0.497791 0.250000 -0.022668
v 0.492021 0.250000 -0.032418
v -0.497791 -0.250000 -0.022668
v 0.492021 -0.250000 -0.032418
v -0.234622 -0.250000 0.063509
v -0.234622 -0.250000 0.043509
v -0.234622 0.250000 0.043509
v -0.234622 0.250000 0.063509
v 0.258903 -0.250000 -0.044078
v 0.258903 0.250000 -0.044078
v 0.258903 0.250000 -0.064078
v 0.258903 -0.250000 -0.064078
v 0.009572 -0.250000 0.032525
v 0.009572 -0.250000 0.012525
v 0.009572 0.250000 0.012525
v 0.009572 0.250000 0.032525
v -0.473275 -0.250000 0.015389
v -0.473275 -0.250000 -0.004611
v -0.473275 0.250000 -0.004611
v -0.473275 0.250000 0.015389
v 0.479950 -0.250000 -0.025306
v 0.479950 0.250000 -0.025306
v 0.479950 0.250000 -0.045306
v 0.479950 -0.250000 -0.045306
vt 0.375000 0.000000
vt 0.625000 0.000000
vt 0.375000 0.250000
vt 0.625000 0.250000
vt 0.375000 0.500000
vt 0.625000 0.500000
vt 0.375000 0.750000
vt 0.625000 0.750000
vt 0.375000 1.000000
vt 0.625000 1.000000
vt 0.875000 0.000000
vt 0.875000 0.250000
vt 0.125000 0.000000
vt 0.125000 0.250000
vt 0.441344 0.000000
vt 0.441344 1.000000
vt 0.441344 0.750000
vt 0.441344 0.500000
vt 0.441344 0.250000
vt 0.564726 0.000000
vt 0.564726 1.000000
vt 0.564726 0.250000
vt 0.564726 0.500000
vt 0.564726 0.750000
vt 0.493891 0.000000
vt 0.493891 1.000000
vt 0.493891 0.750000
vt 0.493891 0.500000
vt 0.493891 0.250000
vt 0.381681 0.000000
vt 0.381681 1.000000
vt 0.381681 0.750000
vt 0.381681 0.500000
vt 0.381681 0.250000
vt 0.619987 0.000000
vt 0.619987 1.000000
vt 0.619987 0.250000
vt 0.619987 0.500000
vt 0.619987 0.750000
vn 0.212995 0.000000 0.977053
vn 0.212995 0.000000 0.977053
vn 0.122027 0.000000 0.992527
vn 0.122027 0.000000 0.992527
vn 0.000000 1.000000 0.000000
vn 0.000000 1.000000 0.000000
vn 0.000000 1.000000 0.000000
vn 0.000000 1.000000 0.000000
vn -0.212995 0.000000 -0.977053
vn -0.212995 0.000000 -0.977053
vn -0.122027 0.000000 -0.992527
vn -0.122027 0.000000 -0.992527
vn 0.000000 -1.000000 0.000000
vn 0.000000 -1.000000 0.000000
vn 0.000000 -1.000000 0.000000
vn 0.000000 -1.000000 0.000000
vn 1.000000 0.000000 0.000000
vn 1.000000 0.000000 0.000000
vn 1.000000 0.000000 0.000000
vn 1.000000 0.000000 0.000000
vn -1.000000 0.000000 0.000000
vn -1.000000 0.000000 0.000000
vn -1.000000 0.000000 0.000000
vn -1.000000 0.000000 0.000000
vn 0.000000 -1.000000 0.000000
vn 0.000000 -1.000000 0.000000
vn 0.000000 -1.000000 0.000000
vn 0.000000 -1.000000 0.000000
vn 0.243872 0.000000 -0.969807
vn 0.243872 0.000000 -0.969807
vn 0.035467 0.000000 -0.999371
vn 0.035467 0.000000 -0.999371
vn 0.000000 1.000000 0.000000
vn 0.000000 1.000000 0.000000
vn 0.000000 1.000000 0.000000
vn 0.000000 1.000000 0.000000
vn -0.243872 0.000000 0.969807
vn -0.243872 0.000000 0.969807
vn -0.035467 0.000000 0.999371
vn -0.035467 0.000000 0.999371
vn -0.134573 0.000000 0.990904
vn -0.134573 0.000000 0.990904
vn 0.000000 1.000000 0.000000
vn 0.000000 1.000000 0.000000
vn 0.134573 0.000000 -0.990904
vn 0.134573 0.000000 -0.990904
vn 0.000000 -1.000000 0.000000
vn 0.000000 -1.000000 0.000000
vn 0.000000 -1.000000 0.000000
vn 0.000000 -1.000000 0.000000
vn 0.593036 0.000000 -0.805176
vn 0.593036 0.000000 -0.805176
vn 0.000000 1.000000 0.000000
vn 0.000000 1.000000 0.000000
vn -0.593036 0.000000 0.805176
vn -0.593036 0.000000 0.805176
vn -0.729867 0.000000 0.683589
vn -0.729867 0.000000 0.683589
vn 0.000000 1.000000 0.000000
vn 0.000000 1.000000 0.000000
vn 0.729867 0.000000 -0.683589
vn 0.729867 0.000000 -0.683589
vn 0.000000 -1.000000 0.000000
vn 0.000000 -1.000000 0.000000
s 1
g pCube1
usemtl initialShadingGroup
f 20/29/1 17/25/2 13/20/3 14/22/4
s 2
f 19/28/5 20/29/6 14/22/7 15/23/8
s 3
f 18/27/9 19/28/10 15/23/11 16/24/12
s 4
f 17/26/13 18/27/14 16/24/15 13/21/16
s off
f 2/2/17 8/11/18 6/12/19 4/4/20
f 7/13/21 1/1/22 3/3/23 5/14/24
s 4
f 21/31/25 22/32/26 10/17/27 9/16/28
s 3
f 22/32/29 23/33/30 11/18/31 10/17/32
s 2
f 23/33/33 24/34/34 12/19/35 11/18/36
s 1
f 24/34/37 21/30/38 9/15/39 12/19/40
f 14/22/4 13/20/3 25/35/41 26/37/42
s 2
f 15/23/8 14/22/7 26/37/43 27/38/44
s 3
f 16/24/12 15/23/11 27/38/45 28/39/46
s 4
f 13/21/16 16/24/15 28/39/47 25/36/48
f 9/16/28 10/17/27 18/27/14 17/26/13
s 3
f 10/17/32 11/18/31 19/28/10 18/27/9
s 2
f 11/18/36 12/19/35 20/29/6 19/28/5
s 1
f 12/19/40 9/15/39 17/25/2 20/29/1
s 4
f 7/7/49 22/32/26 21/31/25 1/9/50
s 3
f 5/5/51 23/33/30 22/32/29 7/7/52
s 2
f 3/3/53 24/34/34 23/33/33 5/5/54
s 1
f 1/1/55 21/30/38 24/34/37 3/3/56
f 26/37/42 25/35/41 2/2/57 4/4/58
s 2
f 27/38/44 26/37/43 4/4/59 6/6/60
s 3
f 28/39/46 27/38/45 6/6/61 8/8/62
s 4
f 25/36/48 28/39/47 8/8/63 2/10/64
